<mxfile host="app.diagrams.net" modified="2023-11-20T02:15:33.945Z" agent="Mozilla/5.0 (Macintosh; Intel Mac OS X 10_15_7) AppleWebKit/537.36 (KHTML, like Gecko) Chrome/119.0.0.0 Safari/537.36" etag="d5ej49HruQ-shH8Z3aZy" version="22.1.3" type="github">
  <diagram name="페이지-1" id="qM5QAniFmg79HylgUZ-G">
    <mxGraphModel dx="1426" dy="996" grid="0" gridSize="10" guides="1" tooltips="1" connect="1" arrows="1" fold="1" page="0" pageScale="1" pageWidth="827" pageHeight="1169" math="0" shadow="0">
      <root>
        <mxCell id="0" />
        <mxCell id="1" parent="0" />
        <mxCell id="joYCGS5JaOpZ8FD0VmTA-3" value="" style="whiteSpace=wrap;html=1;aspect=fixed;" vertex="1" parent="1">
          <mxGeometry x="-105" y="-15" width="700" height="700" as="geometry" />
        </mxCell>
        <mxCell id="joYCGS5JaOpZ8FD0VmTA-1" value="작업 지시서 &amp;lt;출고/반품 /폐기/기타&amp;gt;" style="rounded=0;whiteSpace=wrap;html=1;" vertex="1" parent="1">
          <mxGeometry x="-20" y="15" width="223" height="60" as="geometry" />
        </mxCell>
        <mxCell id="joYCGS5JaOpZ8FD0VmTA-2" value="OMS(플랫폼)" style="rounded=0;whiteSpace=wrap;html=1;" vertex="1" parent="1">
          <mxGeometry x="30.5" y="149" width="120" height="60" as="geometry" />
        </mxCell>
        <mxCell id="joYCGS5JaOpZ8FD0VmTA-4" value="" style="endArrow=classic;html=1;rounded=0;exitX=0.5;exitY=1;exitDx=0;exitDy=0;entryX=0.5;entryY=0;entryDx=0;entryDy=0;" edge="1" parent="1" source="joYCGS5JaOpZ8FD0VmTA-1" target="joYCGS5JaOpZ8FD0VmTA-2">
          <mxGeometry width="50" height="50" relative="1" as="geometry">
            <mxPoint x="267" y="355" as="sourcePoint" />
            <mxPoint x="317" y="305" as="targetPoint" />
          </mxGeometry>
        </mxCell>
        <mxCell id="joYCGS5JaOpZ8FD0VmTA-7" value="" style="edgeStyle=orthogonalEdgeStyle;rounded=0;orthogonalLoop=1;jettySize=auto;html=1;" edge="1" parent="1" source="joYCGS5JaOpZ8FD0VmTA-5" target="joYCGS5JaOpZ8FD0VmTA-6">
          <mxGeometry relative="1" as="geometry" />
        </mxCell>
        <mxCell id="joYCGS5JaOpZ8FD0VmTA-17" value="" style="edgeStyle=orthogonalEdgeStyle;rounded=0;orthogonalLoop=1;jettySize=auto;html=1;" edge="1" parent="1" source="joYCGS5JaOpZ8FD0VmTA-5" target="joYCGS5JaOpZ8FD0VmTA-16">
          <mxGeometry relative="1" as="geometry" />
        </mxCell>
        <mxCell id="joYCGS5JaOpZ8FD0VmTA-5" value="주문, 요청 -&amp;gt; 승인" style="rounded=0;whiteSpace=wrap;html=1;" vertex="1" parent="1">
          <mxGeometry x="31.5" y="254" width="291.5" height="44" as="geometry" />
        </mxCell>
        <mxCell id="joYCGS5JaOpZ8FD0VmTA-9" value="" style="edgeStyle=orthogonalEdgeStyle;rounded=0;orthogonalLoop=1;jettySize=auto;html=1;" edge="1" parent="1" source="joYCGS5JaOpZ8FD0VmTA-6" target="joYCGS5JaOpZ8FD0VmTA-8">
          <mxGeometry relative="1" as="geometry" />
        </mxCell>
        <mxCell id="joYCGS5JaOpZ8FD0VmTA-6" value="작업 지시" style="rounded=0;whiteSpace=wrap;html=1;" vertex="1" parent="1">
          <mxGeometry x="31.5" y="378" width="120.5" height="44" as="geometry" />
        </mxCell>
        <mxCell id="joYCGS5JaOpZ8FD0VmTA-8" value="집책" style="rounded=0;whiteSpace=wrap;html=1;" vertex="1" parent="1">
          <mxGeometry x="31.5" y="502" width="121.5" height="44" as="geometry" />
        </mxCell>
        <mxCell id="joYCGS5JaOpZ8FD0VmTA-11" value="" style="endArrow=classic;startArrow=classic;html=1;rounded=0;exitX=1;exitY=0.5;exitDx=0;exitDy=0;" edge="1" parent="1" source="joYCGS5JaOpZ8FD0VmTA-8">
          <mxGeometry width="50" height="50" relative="1" as="geometry">
            <mxPoint x="186" y="346" as="sourcePoint" />
            <mxPoint x="234.87551867219918" y="298" as="targetPoint" />
            <Array as="points">
              <mxPoint x="233" y="524" />
            </Array>
          </mxGeometry>
        </mxCell>
        <mxCell id="joYCGS5JaOpZ8FD0VmTA-13" value="재승인" style="text;html=1;strokeColor=none;fillColor=none;align=center;verticalAlign=middle;whiteSpace=wrap;rounded=0;" vertex="1" parent="1">
          <mxGeometry x="172" y="388" width="60" height="30" as="geometry" />
        </mxCell>
        <mxCell id="joYCGS5JaOpZ8FD0VmTA-15" value="수령원장" style="text;html=1;strokeColor=none;fillColor=none;align=center;verticalAlign=middle;whiteSpace=wrap;rounded=0;" vertex="1" parent="1">
          <mxGeometry x="244" y="388" width="60" height="30" as="geometry" />
        </mxCell>
        <mxCell id="joYCGS5JaOpZ8FD0VmTA-24" value="" style="edgeStyle=orthogonalEdgeStyle;rounded=0;orthogonalLoop=1;jettySize=auto;html=1;" edge="1" parent="1" source="joYCGS5JaOpZ8FD0VmTA-16" target="joYCGS5JaOpZ8FD0VmTA-23">
          <mxGeometry relative="1" as="geometry" />
        </mxCell>
        <mxCell id="joYCGS5JaOpZ8FD0VmTA-16" value="A4용지 변경" style="whiteSpace=wrap;html=1;rounded=0;" vertex="1" parent="1">
          <mxGeometry x="323" y="378" width="120" height="60" as="geometry" />
        </mxCell>
        <mxCell id="joYCGS5JaOpZ8FD0VmTA-18" value="지시서 발부" style="text;html=1;strokeColor=none;fillColor=none;align=center;verticalAlign=middle;whiteSpace=wrap;rounded=0;" vertex="1" parent="1">
          <mxGeometry x="289" y="311" width="60" height="28" as="geometry" />
        </mxCell>
        <mxCell id="joYCGS5JaOpZ8FD0VmTA-19" value="" style="endArrow=classic;html=1;rounded=0;exitX=0.425;exitY=1.017;exitDx=0;exitDy=0;exitPerimeter=0;entryX=0.5;entryY=0;entryDx=0;entryDy=0;" edge="1" parent="1" source="joYCGS5JaOpZ8FD0VmTA-16" target="joYCGS5JaOpZ8FD0VmTA-20">
          <mxGeometry width="50" height="50" relative="1" as="geometry">
            <mxPoint x="215" y="644" as="sourcePoint" />
            <mxPoint x="237" y="584" as="targetPoint" />
            <Array as="points">
              <mxPoint x="244" y="439" />
            </Array>
          </mxGeometry>
        </mxCell>
        <mxCell id="joYCGS5JaOpZ8FD0VmTA-20" value="미래 작업 방향&amp;nbsp;&lt;br&gt;전표 분리(덩이 구별),&lt;br&gt;종 분리&amp;nbsp;" style="rounded=0;whiteSpace=wrap;html=1;" vertex="1" parent="1">
          <mxGeometry x="180" y="592" width="120" height="60" as="geometry" />
        </mxCell>
        <mxCell id="joYCGS5JaOpZ8FD0VmTA-22" value="1)작업마감분리편리&lt;br style=&quot;border-color: var(--border-color);&quot;&gt;2) 배송현장 작업 편리&lt;br&gt;3) 서점에서 인수&amp;nbsp;" style="rounded=0;whiteSpace=wrap;html=1;" vertex="1" parent="1">
          <mxGeometry x="19.5" y="592" width="132" height="63" as="geometry" />
        </mxCell>
        <mxCell id="joYCGS5JaOpZ8FD0VmTA-26" value="" style="edgeStyle=orthogonalEdgeStyle;rounded=0;orthogonalLoop=1;jettySize=auto;html=1;" edge="1" parent="1" source="joYCGS5JaOpZ8FD0VmTA-23" target="joYCGS5JaOpZ8FD0VmTA-25">
          <mxGeometry relative="1" as="geometry" />
        </mxCell>
        <mxCell id="joYCGS5JaOpZ8FD0VmTA-23" value="분류방법.&lt;br&gt;1차 코드&amp;nbsp;&lt;br&gt;전표번호 1개&amp;nbsp;&lt;br&gt;출판사, 서점&amp;nbsp;" style="whiteSpace=wrap;html=1;rounded=0;" vertex="1" parent="1">
          <mxGeometry x="274" y="494" width="120" height="60" as="geometry" />
        </mxCell>
        <mxCell id="joYCGS5JaOpZ8FD0VmTA-25" value="2차 코드&amp;nbsp;&lt;br&gt;덩이 분리, 종분리&amp;nbsp;&lt;br&gt;물류회사 검수" style="whiteSpace=wrap;html=1;rounded=0;" vertex="1" parent="1">
          <mxGeometry x="434" y="494" width="120" height="60" as="geometry" />
        </mxCell>
      </root>
    </mxGraphModel>
  </diagram>
</mxfile>
